<mxfile host="app.diagrams.net" modified="2024-04-06T06:14:43.027Z" agent="Mozilla/5.0 (Macintosh; Intel Mac OS X 10_15_7) AppleWebKit/537.36 (KHTML, like Gecko) Chrome/123.0.0.0 Safari/537.36" version="23.0.2" etag="GB1Tmcji6hQhb63edP8d" type="github">
  <diagram name="第 1 页" id="HbBIhjOPRAR3b4C_BGJq">
    <mxGraphModel>
      <root>
        <mxCell id="0" />
        <mxCell id="1" parent="0" />
      </root>
    </mxGraphModel>
  </diagram>
</mxfile>
